HIERARCHY
ROOT Pelvis
{
	OFFSET 0.000000 0.000000 0.000000
	CHANNELS 6 Xposition Yposition Zposition Xrotation Yrotation Zrotation
	JOINT LeftUpLeg_virtual
	{
		OFFSET 0.000000 0.000000 0.000000
		CHANNELS 3 Xrotation Yrotation Zrotation
		JOINT LeftUpLeg
		{
			OFFSET 18.735201 -5.666702 -4.541200
			CHANNELS 3 Xrotation Yrotation Zrotation
			JOINT LeftLeg
			{
				OFFSET -0.021200 -31.938179 0.493100
				CHANNELS 3 Xrotation Yrotation Zrotation
				JOINT LeftFoot
				{
					OFFSET 0.021200 -31.938179 -4.336299
					CHANNELS 3 Xrotation Yrotation Zrotation
					JOINT LeftToeBase
					{
						OFFSET 0.943001 -26.722000 15.023500
						CHANNELS 3 Xrotation Yrotation Zrotation
						End Site
						{
							OFFSET 0 0 0
						}
					}
				}
			}
		}
	}
	JOINT RightUpLeg_virtual
	{
		OFFSET 0.000000 0.000000 0.000000
		CHANNELS 3 Xrotation Yrotation Zrotation
		JOINT RightUpLeg
		{
			OFFSET -18.735201 -5.666702 -4.541200
			CHANNELS 3 Xrotation Yrotation Zrotation
			JOINT RightLeg
			{
				OFFSET 0.018946 -31.938133 0.493100
				CHANNELS 3 Xrotation Yrotation Zrotation
				JOINT RightFoot
				{
					OFFSET -0.018946 -31.938126 -4.336299
					CHANNELS 3 Xrotation Yrotation Zrotation
					JOINT RightToeBase
					{
						OFFSET -0.943001 -26.722004 15.023500
						CHANNELS 3 Xrotation Yrotation Zrotation
						End Site
						{
							OFFSET 0 0 0
						}
					}
				}
			}
		}
	}
	JOINT Hips_virtual
	{
		OFFSET 0.000000 0.000000 0.000000
		CHANNELS 3 Xrotation Yrotation Zrotation
		JOINT Hips
		{
			OFFSET -0.000000 -0.000000 -0.000000
			CHANNELS 3 Xrotation Yrotation Zrotation
			JOINT Spine
			{
				OFFSET 0.000000 10.199997 -0.299500
				CHANNELS 3 Xrotation Yrotation Zrotation
				JOINT Spine1
				{
					OFFSET 0.000000 11.900002 -1.516600
					CHANNELS 3 Xrotation Yrotation Zrotation
					JOINT Spine2
					{
						OFFSET 0.000000 13.600006 -2.842500
						CHANNELS 3 Xrotation Yrotation Zrotation
						JOINT Neck_virtual
						{
							OFFSET 0.000000 0.000000 0.000000
							CHANNELS 3 Xrotation Yrotation Zrotation
							JOINT Neck
							{
								OFFSET 0.000000 9.624100 -2.890100
								CHANNELS 3 Xrotation Yrotation Zrotation
								JOINT Head
								{
									OFFSET 0.000000 14.068802 -1.351900
									CHANNELS 3 Xrotation Yrotation Zrotation
									End Site
									{
										OFFSET 0 0 0
									}
								}
							}
						}
						JOINT LeftShoulder_virtual
						{
							OFFSET 0.000000 0.000000 0.000000
							CHANNELS 3 Xrotation Yrotation Zrotation
							JOINT LeftShoulder
							{
								OFFSET 15.263000 10.923401 -0.547700
								CHANNELS 3 Xrotation Yrotation Zrotation
								JOINT LeftArm
								{
									OFFSET 25.438599 -2.830597 -13.032500
									CHANNELS 3 Xrotation Yrotation Zrotation
									JOINT LeftForeArm
									{
										OFFSET 29.960503 0.000000 0.000000
										CHANNELS 3 Xrotation Yrotation Zrotation
										JOINT LeftHand
										{
											OFFSET 27.849251 0.000000 0.000000
											CHANNELS 3 Xrotation Yrotation Zrotation
											End Site
											{
												OFFSET 0 0 0
											}
										}
									}
								}
							}
						}
						JOINT RightShoulder_virtual
						{
							OFFSET 0.000000 0.000000 0.000000
							CHANNELS 3 Xrotation Yrotation Zrotation
							JOINT RightShoulder
							{
								OFFSET -15.263000 10.923401 -0.547700
								CHANNELS 3 Xrotation Yrotation Zrotation
								JOINT RightArm
								{
									OFFSET -25.438599 -2.830597 -13.032500
									CHANNELS 3 Xrotation Yrotation Zrotation
									JOINT RightForeArm
									{
										OFFSET -29.960503 0.000000 0.000000
										CHANNELS 3 Xrotation Yrotation Zrotation
										JOINT RightHand
										{
											OFFSET -27.849251 0.000000 0.000000
											CHANNELS 3 Xrotation Yrotation Zrotation
											End Site
											{
												OFFSET 0 0 0
											}
										}
									}
								}
							}
						}
					}
				}
			}
		}
	}
}
MOTION
Frames: 6
Frame Time: 0.03333333
236.752396 36.879745 -23.408646 0.000000 0.000000 0.000000 -80.628764 18.853994 53.291048 -36.077780 25.432156 12.074765 94.581837 -35.417126 6.653508 -16.127308 -35.663034 -32.324478 0.000000 0.000000 0.000000 -80.312533 16.426740 52.699212 -99.637871 26.909822 -2.244712 81.394511 38.890728 9.544164 18.060767 23.424421 17.348202 0.000000 0.000000 0.000000 -79.995852 18.566172 52.094905 -0.886092 0.108612 -0.059025 20.433011 10.092133 -17.380373 31.668404 3.240457 -2.147354 0.000000 0.000000 0.000000 27.067220 4.451875 -2.900417 17.543780 -3.464724 -2.510409 0.000000 0.000000 0.000000 27.881479 3.407513 -1.073537 -8.149288 13.515238 -24.615814 -41.306546 -9.466836 8.777830 -174.651434 -41.399470 -152.871518 0.000000 0.000000 0.000000 28.955450 6.479970 -3.820259 -27.310486 17.032284 48.285271 -72.638802 -41.584398 -6.537067 -177.816284 49.164067 171.915916 0.000000 0.000000 0.000000 
243.809723 31.363590 -26.486046 0.000000 0.000000 0.000000 -80.363152 26.694874 53.711487 -33.903563 30.406144 7.859623 82.235560 -31.079608 0.675955 -9.528276 -25.188920 -14.919285 0.000000 0.000000 0.000000 -80.230257 24.281946 53.279201 -101.066617 23.723813 -1.636374 88.402872 38.261330 7.465082 14.915683 26.459436 23.858805 0.000000 0.000000 0.000000 -79.257932 25.540524 51.858006 -0.860832 0.139557 0.009308 19.264967 8.429867 -16.986711 31.128225 3.274655 -2.045884 0.000000 0.000000 0.000000 26.171135 4.126700 -2.572620 19.295172 -2.772432 -1.731442 0.000000 0.000000 0.000000 26.200298 3.623596 0.704310 -7.745094 15.062457 -20.312897 -29.549328 -7.930366 -1.883368 -174.829675 -45.468262 -154.617547 0.000000 0.000000 0.000000 26.731482 6.187199 -3.506851 -24.684978 20.290884 42.452214 -47.615902 -51.489996 22.863553 169.677554 61.794081 178.810992 0.000000 0.000000 0.000000 
250.733276 27.390831 -30.283241 0.000000 0.000000 0.000000 -78.899094 33.310884 53.604516 -36.325313 37.070391 4.817922 75.854892 -23.839382 -4.501808 -8.821715 -10.032510 5.021626 0.000000 0.000000 0.000000 -79.133759 31.011859 53.421303 -99.171601 21.723844 -1.441184 90.161741 35.621376 6.619606 10.498433 25.293323 26.881227 0.000000 0.000000 0.000000 -77.835251 31.391939 51.653504 -0.814027 0.083712 0.040062 17.450800 6.028688 -16.600374 30.799932 3.533103 -1.519784 0.000000 0.000000 0.000000 25.738965 4.290128 -1.529376 20.327220 -2.660992 -1.232424 0.000000 0.000000 0.000000 25.533293 4.077088 2.871195 -7.534945 16.099620 -18.740793 -20.354701 -7.807769 -11.851614 -173.757349 -53.235253 -154.996212 0.000000 0.000000 0.000000 24.807889 6.127672 -2.731159 -21.295254 23.341859 36.984190 -26.570658 -45.808552 46.175887 126.781083 79.589223 -143.609263 0.000000 0.000000 0.000000 
257.994507 25.236080 -33.617134 0.000000 0.000000 0.000000 -76.152231 39.459109 52.749725 -43.578424 45.164168 4.393473 78.920418 -17.176435 -8.233412 -15.349257 3.744927 24.845471 0.000000 0.000000 0.000000 -76.995466 37.325242 52.888060 -93.703536 21.346404 -1.975178 86.841416 32.115894 6.835365 3.159005 20.701996 27.638084 0.000000 0.000000 0.000000 -75.768552 37.143200 51.443042 -0.766172 -0.082569 0.088960 15.659585 3.303079 -16.225912 30.214349 3.905901 -0.730357 0.000000 0.000000 0.000000 24.816656 4.940411 0.174194 20.335514 -3.077254 -0.928829 0.000000 0.000000 0.000000 25.246213 4.600594 5.211248 -7.523109 16.193395 -19.625032 -13.974687 -8.997277 -20.101254 -170.070645 -63.803789 -152.503002 0.000000 0.000000 0.000000 22.788310 6.262996 -1.692242 -17.491961 25.704990 32.760282 -20.119856 -34.052728 53.574098 22.642349 70.738514 -43.763843 0.000000 0.000000 0.000000 
265.979218 25.361382 -35.448364 0.000000 0.000000 0.000000 -72.280436 45.637634 51.289601 -53.847470 53.529531 7.175324 89.238614 -13.491793 -10.990594 -24.926615 11.734320 42.202475 0.000000 0.000000 0.000000 -73.694709 43.651104 51.622918 -86.657479 22.971400 -3.305791 81.025667 29.611015 6.587755 -3.337036 16.134184 28.004665 0.000000 0.000000 0.000000 -73.174105 43.560372 51.165446 -0.739088 -0.268650 0.130615 14.790503 0.877747 -15.371460 29.388716 4.382295 0.251562 0.000000 0.000000 0.000000 23.131300 5.949874 2.156888 19.203879 -3.820452 -0.888141 0.000000 0.000000 0.000000 24.764565 5.235645 7.313139 -7.713111 15.563402 -22.359842 -9.906301 -10.708698 -25.338897 -158.132963 -75.193307 -141.230840 0.000000 0.000000 0.000000 20.610159 6.596863 -0.590659 -13.778081 26.772393 29.922960 -21.938429 -21.956717 53.463142 5.017438 52.216386 -28.920199 0.000000 0.000000 0.000000 
274.693390 27.190845 -36.070831 0.000000 0.000000 0.000000 -67.434915 52.112025 49.283206 -64.940605 60.563745 12.021058 102.646166 -13.248155 -11.961674 -32.885732 14.821038 54.365417 0.000000 0.000000 0.000000 -69.274388 50.089947 49.750961 -79.738354 25.349542 -5.350073 74.017141 29.438860 6.221046 -3.572014 14.537901 29.944676 0.000000 0.000000 0.000000 -70.312474 50.755805 50.972117 -0.724712 -0.425412 0.168557 15.269984 -0.621757 -13.405333 28.332811 5.032836 0.990400 0.000000 0.000000 0.000000 20.756887 7.058222 3.829323 16.957727 -4.627360 -1.266670 0.000000 0.000000 0.000000 24.153699 5.881813 8.739557 -8.101752 14.824675 -25.717879 -6.309822 -12.743510 -27.751467 -108.789170 -82.627435 -92.177692 0.000000 0.000000 0.000000 18.498077 7.117019 0.270833 -10.152555 25.972564 27.477465 -27.744570 -11.026774 52.040567 -2.161540 38.809524 -23.238001 0.000000 0.000000 0.000000 
